<svg width="792" height="612" xmlns="http://www.w3.org/2000/svg">
 <defs>
  <clipPath id="_clipPath_0phW3gyETQS0r51LebYo1myW4YPxczuf">
   <rect id="svg_1" height="612" width="792"/>
  </clipPath>
 </defs>
 <g>
  <title>background</title>
  <rect fill="#000000" id="canvas_background" height="614" width="794" y="-1" x="-1"/>
 </g>
 <g>
  <title>Layer 1</title>
  <g id="svg_2" clip-path="url(#_clipPath_0phW3gyETQS0r51LebYo1myW4YPxczuf)">
   <path id="svg_3" fill="rgb(255,255,255)" d="m244.171,215.327l-102.134,0l0,0l0,0l-57.474,121.079l-57.291,-121.079l-27.272,0l84.746,178.673l71.201,-150.313l88.224,0l0,-28.36z"/>
   <path id="svg_4" fill="rgb(255,255,255)" d="m244.171,315.68l0,-28.36l-101.402,0l0,98.826l101.402,0l0,-28.361l-77.608,0l0,-42.105l77.608,0z"/>
   <rect id="svg_5" fill="rgb(255,255,255)" height="170.82" width="23.795" y="215.327" x="495.114"/>
   <path id="svg_6" fill="rgb(255,255,255)" d="m485.78,215.327l-121.537,0l0,0.436c7.505,7.199 13.179,16.798 16.473,27.924l32.398,0l0,142.459l23.795,0l0,-142.459l48.871,0l0,-28.36z"/>
   <path id="svg_7" fill="rgb(255,255,255)" d="m358.386,386.146l23.795,0l-35.143,-76.792c15.009,-7.2 25.625,-24.871 25.625,-45.159c0,-27.052 -18.304,-48.868 -41,-48.868l-53.813,0l-15.924,0l-7.871,0l0,170.819l23.795,0l0,-73.302l47.04,0l33.496,73.302zm-80.536,-142.458l53.813,0c9.517,0 17.205,9.162 17.205,20.507c0,11.344 -7.688,20.507 -17.205,20.507l-53.813,0l0,-41.014z"/>
   <path id="svg_8" fill="rgb(255,255,255)" d="m702.678,209l0,0l-61.134,121.297l0,0.218l0,0c-8.603,17.017 -24.161,28.361 -41.916,28.361c-27.089,0 -49.053,-26.179 -49.053,-58.467c0,-32.288 21.964,-58.467 49.053,-58.467c16.657,0 31.3,9.817 40.268,25.089l12.813,-25.525c-13.179,-17.017 -32.031,-27.488 -53.081,-27.488c-40.085,0 -72.482,38.614 -72.482,86.391c0,47.777 32.397,86.392 72.482,86.392c26.358,0 49.42,-16.799 62.233,-41.887l0,0l40.817,-81.156l61.866,122.825l27.456,-0.437l-89.322,-177.146z"/>
  </g>
 </g>
</svg>